<svg width="153" height="32" viewBox="0 0 153 32" fill="none" xmlns="http://www.w3.org/2000/svg">
<g clip-path="url(#clip0_323_66)">
<path fill-rule="evenodd" clip-rule="evenodd" d="M26.6469 9.1742C26.7815 9.25197 26.9283 9.28883 27.0731 9.28883C27.3684 9.28883 27.6555 9.13558 27.8137 8.86149C28.0496 8.45291 27.9096 7.93052 27.501 7.69464L14.4025 0.13211C14.1383 -0.0205991 13.8126 -0.0205991 13.5483 0.13211L0.449746 7.69464C0.0411721 7.93052 -0.0988462 8.45291 0.137036 8.86149C0.373052 9.27006 0.895449 9.41008 1.30389 9.1742L13.9754 1.85835L26.6469 9.1742ZM26.647 13.12C26.7815 13.1977 26.9284 13.2346 27.0733 13.2346C27.3686 13.2346 27.6556 13.0813 27.8139 12.8073C28.0497 12.3987 27.9097 11.8763 27.5012 11.6404L14.4026 4.07787C14.1384 3.92529 13.8127 3.92516 13.5485 4.07787L3.86674 9.66761C3.45816 9.90349 3.31801 10.4259 3.55403 10.8345C3.78991 11.243 4.31258 11.383 4.72088 11.1472L13.9756 5.80411L26.647 13.12ZM27.0733 17.1803C26.9284 17.1803 26.7815 17.1434 26.647 17.0656L13.9756 9.74963L8.13801 13.1199C7.72957 13.3558 7.2069 13.2159 6.97102 12.8073C6.73514 12.3986 6.87516 11.8762 7.28387 11.6403L13.5485 8.02352C13.8127 7.87081 14.1384 7.87081 14.4026 8.02352L27.5012 15.5861C27.9097 15.8219 28.0497 16.3443 27.8139 16.7529C27.6556 17.027 27.3686 17.1803 27.0733 17.1803ZM26.6469 21.0112C26.7814 21.089 26.9283 21.1258 27.0731 21.1258C27.3684 21.1258 27.6555 20.9726 27.8137 20.6985C28.0496 20.2899 27.9096 19.7675 27.501 19.5317L14.4024 11.9691C14.1381 11.8164 13.8124 11.8164 13.5482 11.9691L10.7008 13.6131C10.2922 13.849 10.1522 14.3714 10.3881 14.78C10.624 15.1887 11.1466 15.3286 11.5549 15.0927L13.9753 13.6954L26.6469 21.0112Z" fill="#08A17F"/>
<path fill-rule="evenodd" clip-rule="evenodd" d="M13.5482 20.0238C13.6803 20.1002 13.8277 20.1383 13.9753 20.1383C14.1227 20.1383 14.2703 20.1002 14.4024 20.0239L17.2499 18.3799C17.6585 18.144 17.7985 17.6215 17.5627 17.2129C17.3269 16.8043 16.8044 16.6646 16.3958 16.9002L13.9753 18.2976L1.30389 10.9818C0.895449 10.7458 0.372918 10.886 0.137036 11.2944C-0.0988454 11.703 0.0411706 12.2255 0.449745 12.4614L13.5482 20.0238ZM13.9753 24.0838C13.8277 24.0838 13.6803 24.0458 13.5482 23.9693L0.449745 16.4068C0.0411706 16.1709 -0.0988454 15.6485 0.137036 15.24C0.372918 14.8314 0.895449 14.6911 1.30389 14.9273L13.9753 22.2432L19.8128 18.873C20.2214 18.6371 20.744 18.777 20.9798 19.1855C21.2157 19.5943 21.0756 20.1167 20.6671 20.3525L14.4024 23.9693C14.2703 24.0458 14.1229 24.0838 13.9753 24.0838ZM13.5482 27.9149C13.6803 27.9914 13.8277 28.0294 13.9753 28.0294C14.1227 28.0294 14.2703 27.9914 14.4024 27.9149L24.084 22.3253C24.4928 22.0894 24.6328 21.567 24.3969 21.1583C24.1609 20.7498 23.6385 20.6099 23.2299 20.8458L13.9753 26.1888L1.30389 18.873C0.895449 18.637 0.372918 18.7771 0.137036 19.1855C-0.0988454 19.5941 0.0411706 20.1167 0.449745 20.3525L13.5482 27.9149ZM13.5482 31.8607C13.6803 31.9371 13.8277 31.9752 13.9753 31.9752C14.1229 31.9752 14.2703 31.9371 14.4024 31.8607L27.5012 24.2983C27.9097 24.0624 28.0496 23.5398 27.8137 23.1313C27.578 22.7227 27.0553 22.5827 26.6469 22.8187L13.9753 30.1345L1.30389 22.8187C0.895449 22.5825 0.372918 22.7228 0.137036 23.1313C-0.0988454 23.5398 0.0411706 24.0624 0.449745 24.2983L13.5482 31.8607Z" fill="#0A0552"/>
<path fill-rule="evenodd" clip-rule="evenodd" d="M72.0591 24.6312C69.653 24.6312 67.6402 23.8515 66.0216 22.292C64.4025 20.7179 63.5932 18.6906 63.5932 16.21C63.5932 13.7148 64.4175 11.6652 66.0661 10.0612C67.7295 8.44253 69.7421 7.63281 72.1035 7.63281C73.5589 7.63281 74.9106 7.93364 76.1582 8.53516C77.4059 9.13668 78.4083 9.94977 79.1658 10.9746L76.7597 13.4252C75.5121 11.9253 74.0267 11.1751 72.304 11.1751C70.9374 11.1751 69.779 11.6506 68.8287 12.6009C67.878 13.5515 67.4028 14.7473 67.4028 16.1877C67.4028 17.5989 67.8706 18.772 68.8064 19.7077C69.7421 20.6434 70.9006 21.1112 72.2817 21.1112C74.0641 21.1112 75.5862 20.3538 76.8489 18.8388L79.3217 21.1558C78.5492 22.2106 77.5171 23.0532 76.225 23.6845C74.9328 24.3158 73.544 24.6312 72.0591 24.6312ZM41.5177 15.6085H39.0226V11.3088H41.6738C42.3271 11.3088 42.8545 11.513 43.2555 11.9214C43.6564 12.3301 43.8571 12.8387 43.8571 13.4475C43.8571 14.0712 43.6489 14.5874 43.2333 14.9957C42.8173 15.4044 42.2453 15.6085 41.5177 15.6085ZM41.6515 7.92243H35.3467V24.3862H39.0226V18.9279H41.384C43.4928 18.9279 45.0601 18.4155 46.0849 17.3907C47.1097 16.3659 47.622 15.0665 47.622 13.4921C47.622 11.903 47.1243 10.5813 46.1295 9.52648C45.1491 8.45712 43.6564 7.92243 41.6515 7.92243ZM55.1741 12.6232L56.9341 17.8363H53.392L55.1741 12.6232ZM59.006 24.3862H62.8379L56.8005 7.92243H53.5924L47.4213 24.3862H51.2532L52.3893 21.0667H57.9144L59.006 24.3862ZM85.6192 11.4646V24.3862H89.3175V11.4646H93.9512V7.92236H80.963V11.4646H85.6192Z" fill="#0A0552"/>
</g>
<path d="M122.648 12.128V8.088H123.56V14H123.016L119.632 9.992V14H118.72V8.088H119.2L122.648 12.128ZM128.866 11.76C128.866 11.88 128.858 12.024 128.834 12.184H125.466C125.594 12.856 126.066 13.312 126.898 13.312C127.386 13.312 127.978 13.128 128.362 12.848L128.73 13.496C128.29 13.824 127.594 14.096 126.866 14.096C125.25 14.096 124.554 12.968 124.554 11.832C124.554 11.184 124.754 10.648 125.162 10.224C125.57 9.8 126.106 9.584 126.754 9.584C127.37 9.584 127.882 9.776 128.274 10.168C128.666 10.56 128.866 11.088 128.866 11.76ZM126.754 10.344C126.09 10.344 125.594 10.792 125.466 11.464H127.978C127.906 10.784 127.402 10.344 126.754 10.344ZM132.27 13.056L132.574 13.744C132.254 13.984 131.854 14.104 131.382 14.104C130.446 14.104 129.966 13.52 129.966 12.456V10.44H129.222V9.688H129.974V8.16H130.846V9.688H132.334V10.44H130.846V12.472C130.846 13.024 131.07 13.296 131.51 13.296C131.742 13.296 131.998 13.216 132.27 13.056ZM134.906 13.992H134.154L132.682 9.688H133.61L134.578 12.784L135.69 9.688H136.314L137.458 12.784L138.394 9.688H139.322L137.874 13.992H137.122L136.002 10.936L134.906 13.992ZM139.617 11.84C139.617 11.208 139.833 10.68 140.257 10.24C140.689 9.8 141.233 9.576 141.897 9.576C142.561 9.576 143.105 9.8 143.529 10.24C143.961 10.68 144.177 11.208 144.177 11.84C144.177 12.48 143.961 13.016 143.529 13.456C143.105 13.896 142.561 14.112 141.897 14.112C141.233 14.112 140.689 13.896 140.257 13.456C139.833 13.016 139.617 12.48 139.617 11.84ZM143.289 11.84C143.289 11.448 143.153 11.104 142.881 10.824C142.617 10.536 142.289 10.392 141.897 10.392C141.505 10.392 141.177 10.536 140.905 10.824C140.641 11.104 140.505 11.448 140.505 11.84C140.505 12.24 140.641 12.584 140.905 12.864C141.177 13.144 141.505 13.288 141.897 13.288C142.289 13.288 142.617 13.144 142.881 12.864C143.153 12.584 143.289 12.24 143.289 11.84ZM145.94 14H145.06V9.688H145.9V10.304C146.156 9.816 146.564 9.576 147.124 9.576C147.308 9.576 147.476 9.6 147.636 9.648L147.556 10.504C147.404 10.448 147.244 10.424 147.084 10.424C146.412 10.424 145.94 10.888 145.94 11.792V14ZM152.2 14H151.064L149.512 12.04L149.136 12.384V14H148.256V7.936H149.136V11.352L150.952 9.688H152.112L150.128 11.48L152.2 14ZM120.28 25.096C119.416 25.096 118.616 24.68 118.192 23.92L118.816 23.32C119.144 23.92 119.696 24.224 120.28 24.224C120.888 24.224 121.288 23.864 121.288 23.416C121.288 23.12 121.096 22.864 120.704 22.656C120.608 22.608 120.408 22.52 120.104 22.392C119.808 22.256 119.576 22.144 119.424 22.056C118.824 21.696 118.528 21.216 118.528 20.624C118.528 20.16 118.696 19.768 119.04 19.456C119.384 19.144 119.832 18.984 120.384 18.984C121.128 18.984 121.728 19.264 122.184 19.832L121.616 20.464C121.288 20.056 120.88 19.856 120.392 19.856C119.88 19.856 119.512 20.136 119.512 20.576C119.512 20.856 119.68 21.096 120.008 21.28C120.112 21.336 120.328 21.448 120.672 21.608C121.016 21.76 121.256 21.88 121.4 21.96C122 22.288 122.304 22.76 122.304 23.368C122.304 23.872 122.112 24.288 121.736 24.616C121.36 24.936 120.872 25.096 120.28 25.096ZM127.257 22.76C127.257 22.88 127.249 23.024 127.225 23.184H123.857C123.985 23.856 124.457 24.312 125.289 24.312C125.777 24.312 126.369 24.128 126.753 23.848L127.121 24.496C126.681 24.824 125.985 25.096 125.257 25.096C123.641 25.096 122.945 23.968 122.945 22.832C122.945 22.184 123.145 21.648 123.553 21.224C123.961 20.8 124.497 20.584 125.145 20.584C125.761 20.584 126.273 20.776 126.665 21.168C127.057 21.56 127.257 22.088 127.257 22.76ZM125.145 21.344C124.481 21.344 123.985 21.792 123.857 22.464H126.369C126.297 21.784 125.793 21.344 125.145 21.344ZM129.003 25H128.123V20.688H128.963V21.304C129.219 20.816 129.627 20.576 130.187 20.576C130.371 20.576 130.539 20.6 130.699 20.648L130.619 21.504C130.467 21.448 130.307 21.424 130.147 21.424C129.475 21.424 129.003 21.888 129.003 22.792V25ZM133.054 23.768L134.286 20.688H135.254L133.366 24.992H132.726L130.838 20.688H131.814L133.054 23.768ZM136.376 20.12C136.032 20.12 135.768 19.864 135.768 19.52C135.768 19.192 136.032 18.936 136.376 18.936C136.704 18.936 136.96 19.192 136.96 19.52C136.96 19.864 136.704 20.12 136.376 20.12ZM136.8 20.688V25H135.92V20.688H136.8ZM139.959 25.096C139.295 25.096 138.743 24.888 138.319 24.464C137.895 24.04 137.679 23.504 137.679 22.848C137.679 22.184 137.895 21.648 138.327 21.224C138.759 20.8 139.311 20.584 139.991 20.584C140.855 20.584 141.631 21.024 141.975 21.736L141.247 22.144C140.983 21.688 140.511 21.392 139.999 21.392C139.591 21.392 139.247 21.528 138.975 21.808C138.703 22.088 138.567 22.432 138.567 22.848C138.567 23.256 138.703 23.592 138.967 23.872C139.231 24.152 139.567 24.288 139.967 24.288C140.479 24.288 140.999 23.976 141.223 23.552L141.951 23.976C141.599 24.648 140.823 25.096 139.959 25.096ZM146.788 22.76C146.788 22.88 146.78 23.024 146.756 23.184H143.388C143.516 23.856 143.988 24.312 144.82 24.312C145.308 24.312 145.9 24.128 146.284 23.848L146.652 24.496C146.212 24.824 145.516 25.096 144.788 25.096C143.172 25.096 142.476 23.968 142.476 22.832C142.476 22.184 142.676 21.648 143.084 21.224C143.492 20.8 144.028 20.584 144.676 20.584C145.292 20.584 145.804 20.776 146.196 21.168C146.588 21.56 146.788 22.088 146.788 22.76ZM144.676 21.344C144.012 21.344 143.516 21.792 143.388 22.464H145.9C145.828 21.784 145.324 21.344 144.676 21.344ZM148.926 25.104C148.262 25.104 147.63 24.8 147.27 24.2L147.838 23.688C148.102 24.112 148.534 24.344 148.942 24.344C149.358 24.344 149.654 24.104 149.654 23.808C149.654 23.6 149.534 23.432 149.286 23.312C149.214 23.272 149.038 23.2 148.766 23.096C148.502 22.984 148.318 22.904 148.222 22.848C147.766 22.608 147.534 22.256 147.534 21.784C147.534 21.424 147.67 21.128 147.934 20.896C148.206 20.664 148.566 20.544 149.006 20.544C149.622 20.544 150.094 20.768 150.422 21.208L149.91 21.752C149.654 21.44 149.342 21.28 148.966 21.28C148.606 21.28 148.39 21.488 148.39 21.752C148.39 21.96 148.51 22.12 148.75 22.224L149.19 22.408C149.462 22.52 149.662 22.608 149.798 22.68C150.286 22.936 150.534 23.296 150.534 23.768C150.534 24.144 150.382 24.464 150.086 24.72C149.79 24.976 149.398 25.104 148.926 25.104Z" fill="#0A0552"/>
<line x1="106.5" y1="2.18556e-08" x2="106.5" y2="32" stroke="#EBF0F5"/>
<defs>
<clipPath id="clip0_323_66">
<rect width="93.9747" height="32" fill="white"/>
</clipPath>
</defs>
</svg>
